# xmcd
#
# Track frame offsets:
#	150
#	5995
#	14864
#	23668
#	30442
#	36711
#	45284
#	51896
#	58046
#	65077
#	75628
#	94768
#	113658
#	125331
#	138364
#	143582
#	146374
#	151297
#	155297
#	167571
#	183666
#	199948
#	211339
#	216816
#	227831
#	236291
#	248245
#	254079
#	268144
#
# Disc length: 3749
#
# Revision: 1
# Processed by: cddbd v1.5.1PL0 Copyright (c) Steve Scherf et al.
# Submitted via: dBpowerAMP V4.0
# Normalized: r0:TDELIM( - )
#
DISCID=a10ea31d
DTITLE=Dj Whoo Kid - Hot 97 Summer Jam X
DYEAR=2002
DGENRE=Undergraoun Rap
TTITLE0=Nas -01 - Mr. C Intro
TTITLE1=Nas - 02 - King of the Street
TTITLE2=Nas - 03 - NY State of Mind
TTITLE3=Nas - 04 - War Fare
TTITLE4=Nas - 05 - Street Dream
TTITLE5=Nas - 06 - Rule the World
TTITLE6=Nas -07 - The Bridge
TTITLE7=Nas - 08 - South Bx feat. KRS
TTITLE8=Nas - 09 - Ether
TTITLE9=Nas - 10 - One Mic
TTITLE10=Nas - 11 - Outro
TTITLE11=Lil Kim - 12 - Fat Man Scoop Intro
TTITLE12=Lil Kim -13 - That Bitch
TTITLE13=Lil Kim - 14 - Get Money
TTITLE14=Lil Kim - 15 - One More Chance
TTITLE15=Lil Kim - 16 - Twista
TTITLE16=Lil Kim - 17 - Quiet Storm feat. Mobb Deep
TTITLE17=Lil Kim - 18 - The Jump Off
TTITLE18=Lil Kim - 19 - Magic Stick
TTITLE19=Sean Paul - 20
TTITLE20=Sean Paul - 21
TTITLE21=Sean Paul - 22
TTITLE22=Sean Paul - 23
TTITLE23=Sean Paul - 24
TTITLE24=Sean Paul - 25
TTITLE25=Bonus - 26
TTITLE26=Bonus - 27
TTITLE27=Bonus - 28
TTITLE28=Bonus - 29
EXTD=Hot97 Summer Jam X Live and Uncut
EXTT0=
EXTT1=
EXTT2=
EXTT3=
EXTT4=
EXTT5=
EXTT6=
EXTT7=
EXTT8=
EXTT9=
EXTT10=
EXTT11=
EXTT12=
EXTT13=
EXTT14=
EXTT15=
EXTT16=
EXTT17=
EXTT18=
EXTT19=
EXTT20=
EXTT21=
EXTT22=
EXTT23=
EXTT24=
EXTT25=
EXTT26=
EXTT27=
EXTT28=
PLAYORDER=
